<?xml version="1.0" encoding="UTF-8"?>
<svg enable-background="new 0 0 26 26" version="1.1" viewBox="0 0 26 26" xml:space="preserve" xmlns="http://www.w3.org/2000/svg">
<style type="text/css">
	.st0{fill:#E0E0E0;}
</style>
<path class="st0" d="m12.2 11.9c0.3-0.3 0.3-0.8 0-1.1s-0.8-0.3-1.1 0l-4 4c-0.7 0.7-1 1.6-1 2.5s0.4 1.8 1 2.5c1.4 1.4 3.6 1.4 5 0l8.9-8.9c0.9-0.9 1.4-2.2 1.4-3.5s-0.5-2.6-1.4-3.5c-1.9-1.9-5.1-1.9-7 0l-8.9 8.9c-1.1 1.2-1.7 2.8-1.7 4.5s0.7 3.3 1.9 4.5 2.7 1.8 4.4 1.8 3.3-0.7 4.5-1.9l4-4c0.3-0.3 0.3-0.8 0-1.1s-0.8-0.3-1.1 0l-4 4c-0.9 0.9-2.1 1.4-3.4 1.4s-2.5-0.5-3.4-1.4-1.4-2.1-1.4-3.4 0.5-2.5 1.4-3.4l8.9-8.9c0.7-0.7 1.5-1 2.4-1s1.8 0.4 2.4 1c0.7 0.7 1 1.5 1 2.4s-0.4 1.8-1 2.4l-8.9 8.9c-0.8 0.8-2.1 0.8-2.9 0-0.4-0.4-0.6-0.9-0.6-1.4s0.2-1.1 0.6-1.4l4-3.9z"/>
</svg>
