<?xml version="1.0" encoding="utf-8"?><!DOCTYPE svg PUBLIC "-//W3C//DTD SVG 1.1//EN" "http://www.w3.org/Graphics/SVG/1.1/DTD/svg11.dtd"><svg version="1.1" id="Layer_1" xmlns="http://www.w3.org/2000/svg" xmlns:xlink="http://www.w3.org/1999/xlink" x="0px" y="0px" width="260px" height="300px" viewBox="1450 0 260 300" style="enable-background:new 1450 0 260 300;" xml:space="preserve"><style type="text/css">.st0{opacity:0.15;}.st1{fill:#FFFFFF;}</style><path class="st0" d="M244.1,106.5c-1.4,0.7-3,1.1-4.5,1c-0.7,7.4-8.5,9.9-14.1,5.5c-0.3-0.3-0.6-0.5-0.9-0.8c-5.7,0.6-11.5,0.7-17.3,0.7c-2.6,0-4.8-1.2-6.4-3.1c-1.7,0.6-3.6,1-5.5,1.4c-7.8,1.4-18,3.5-25.8,1c-1.9-0.6-3.9-1.7-5.5-3.2c-1.2-0.1-2.3-0.2-3.5-0.5c-6.8-1.5-12.2-5.2-17.6-9.4c-3-2.4-6.4-5.2-8.1-8.7c-3.4-6.9-1.4-14.8,5.7-18.4c-0.6,0.2-1.2,0.4-1.8,0.6c-4.2,1.7-9.1-1.8-10.2-5.8c-1.3-4.7,1.6-8.5,5.8-10.2c10.8-4.3,25.7-2.9,36.9,1.4c2.6-0.8,5.2-1.6,7.8-2.5c4.2-1.4,7.8,1.2,9.5,4.6c1.8-0.7,3.7-1,6-0.5c4.9,0.9,9.3,6,11.8,10.1c0.5,0.8,0.9,1.6,1.3,2.4c1.7-1.6,4-2.6,6.3-2.4c0.7-2.5,1.7-4.8,3.3-6.9c1.4-1.8,3.2-3.1,5.2-3.7C200.7,30,166,11.3,127,11.3C61,11.3,7.5,64.9,7.5,130.9c0,60,44.1,109.6,101.7,118.2L98.1,274c-6.1,21.2,6.8,29.1,24.1,14.7l83.7-68l0.2-0.2c8.6-7.6,16-16.3,22.1-26c-6.3,0.8-13.1,0-19.2-0.9c-7.5-1.1-14.9-2.8-22.2-4.8c-18.2-5-41.1-4.4-56.1-17.1c-3.8-3.3-2.9-9,0.5-12.1c-2.8-0.6-5.1-2.5-6-5.7c-1.1-4,1.3-9.5,5.8-10.2c29.4-4.6,59,1.2,86.2,12.5c4.9,2,9.6,3.4,14.6,5.1c3.4,1.1,6.7,2.5,9.4,4.8c3.4-11.1,5.3-23,5.3-35.2C246.6,122.5,245.7,114.4,244.1,106.5z"/><path class="st0" d="M998.5,9.7c-66,0-119.5,53.5-119.5,119.5c0,60,44.1,109.6,101.7,118.2l-11.1,24.9c-6.1,21.2,6.8,29.1,24.1,14.7l83.7-68l0.2-0.2c24.8-21.9,40.5-53.9,40.5-89.6C1118.1,63.2,1064.6,9.7,998.5,9.7z M1007.7,87.7c2.9-2.7,6.4-4.7,10.2-6.2c3.2-2.8,7.5-4.1,12.1-4.4c1-0.1,2.2,0.2,3.2,0.6c0.3,0,0.7-0.1,1-0.1c3-2.9,6.7-4.9,11.1-5.2c6-0.4,11.5,3,14.7,7.9c1.7,2.6,2.8,5.3,3.3,8c0.3,0.6,0.5,1.2,0.7,1.8c0.8,0.4,1.6,0.9,2.4,1.5c5,2.3,8.7,6.7,9,12.7c0.2,5.1-2,9.8-5.5,13.5c3.5,3,5.8,7.5,5.8,12.5c0,9.1-7.4,16.5-16.5,16.5s-16.5-7.4-16.5-16.5c0-1.8,0.3-3.4,0.8-5c0,0-0.1,0-0.1,0c-3.7,0.8-6.5-0.4-8.7-3c-0.2-0.1-0.4-0.2-0.7-0.3c-2.5-1.2-3.8-3.1-4.2-5.1c-4.7-2.2-8.8-5.8-11.9-10.2c-3.7-0.1-7.4-1.3-10.3-3.7C1002.7,99.2,1003.5,91.7,1007.7,87.7z M1001.6,114c9.1,0,16.5,7.4,16.5,16.5c0,9.1-7.4,16.5-16.5,16.5c-9.1,0-16.5-7.4-16.5-16.5C985.1,121.4,992.5,114,1001.6,114z M927.7,130.5c0-6.7,4-12.4,9.7-15c0-0.4,0-0.8,0.1-1.2c-0.8-2.3-1.3-4.7-1.2-6.9c0-1.2,0.1-2.5,0.3-3.7c-0.4-2.5-0.2-4.9,0.6-7.1c-0.3-0.6-0.5-1.1-0.8-1.8c-5.2-14.2,16.5-24,26.9-26.8c3.4-0.9,7.8,0.5,9.4,3.8c0.3,0.7,0.7,1.5,1,2.3c3,1.2,5.7,3,7.8,5.4c3.5,4,5.2,9.3,4.3,14.5c3.7,3.8,5.2,9.7,1.8,14.7c-3.1,4.6-8.7,7.6-14.7,8.9c0.5,6.1-7,11.8-13,7.8c0.5,1.6,0.8,3.3,0.8,5.1c0,9.1-7.4,16.5-16.5,16.5S927.7,139.6,927.7,130.5z M1073.1,185.3c-1.7-0.2-3.3-0.6-4.8-1.3c-0.8,2.3-2.6,4.2-5.2,5c-0.2,0.1-0.3,0.1-0.5,0.2c1.7,0.6,3.3,1.2,5,1.8c5,2,9.1,9.6,3.7,13.9c-9.1,7.2-22.3,5.4-33.2,5c-0.9,0-1.8-0.1-2.7-0.1c-17.2,2-34.9,2.6-51.7-1.3c-6.1-1.4-7.2-7.3-4.8-11.6c-2.5-0.3-4.9-0.8-7.2-1.6c-3.3-1.2-6.2-2.9-8.9-4.8c-2.6,1.6-6.1,1.9-8.6,0.2c-4.7-3.1-9.7-6.2-13.8-10.2c-2.5-2.5-3.9-5.2-4.3-8.7c-0.2-1.9,0.1-3.9,0.5-5.8c0.1-0.3,0.1-0.5,0.1-0.7c0-0.1-0.1-0.1-0.1-0.2c-4-6.6,2-12.5,7.9-12.1c2.6-2.8,7.2-3.9,10.5-1.7c6.2,4.2,12.4,8.5,19.1,11.9c0.9-0.4,2-0.6,3.2-0.6c5.1,0,10.2,0,15.3,0.1c5.3-0.1,10.6-0.2,15.8,0.1c2.4,0,4.9,0,7.3,0.1c-1-4,1.5-9.2,5.8-10c8.4-1.5,17.1-3.5,25.7-3c4.3,0.2,8.6,0.8,12.8,2c1,0.3,2,0.8,2.8,1.4c2.9-0.1,5.5,1.5,7.1,3.7c0.1,0,0.1,0,0.2-0.1c3.8-1.1,6.9,0.4,8.6,2.9c1.5,0.7,2.9,1.4,4.2,2.4c3.4,2.5,7.5,6.2,7,11C1089.2,181.7,1081.1,186.1,1073.1,185.3z"/><path class="st0" d="M707,11.7c-66,0-119.5,53.5-119.5,119.5c0,60,44.1,109.6,101.7,118.2l-11.1,24.9c-6.1,21.2,6.8,29.1,24.1,14.7l83.7-68l0.2-0.2c24.8-21.9,40.5-53.9,40.5-89.6C826.5,65.2,773,11.7,707,11.7z M652.7,149c-9.1,0-16.5-7.4-16.5-16.5c0-9.1,7.4-16.5,16.5-16.5s16.5,7.4,16.5,16.5C669.2,141.6,661.8,149,652.7,149z M710.1,149c-9.1,0-16.5-7.4-16.5-16.5c0-9.1,7.4-16.5,16.5-16.5s16.5,7.4,16.5,16.5C726.6,141.6,719.2,149,710.1,149z M767.5,149c-9.1,0-16.5-7.4-16.5-16.5c0-9.1,7.4-16.5,16.5-16.5s16.5,7.4,16.5,16.5C784,141.6,776.6,149,767.5,149z"/><path class="st0" d="M418.5,9.7c-66,0-119.5,53.5-119.5,119.5c0,60,44.1,109.6,101.7,118.2l-11.1,24.9c-6.1,21.2,6.8,29.1,24.1,14.7l83.7-68l0.2-0.2c24.8-21.9,40.5-53.9,40.5-89.6C538.1,63.2,484.6,9.7,418.5,9.7z M364.2,147c-9.1,0-16.5-7.4-16.5-16.5c0-9.1,7.4-16.5,16.5-16.5s16.5,7.4,16.5,16.5C380.7,139.6,373.3,147,364.2,147z M421.6,147c-9.1,0-16.5-7.4-16.5-16.5c0-9.1,7.4-16.5,16.5-16.5s16.5,7.4,16.5,16.5C438.1,139.6,430.8,147,421.6,147z M479.1,147c-9.1,0-16.5-7.4-16.5-16.5c0-9.1,7.4-16.5,16.5-16.5s16.5,7.4,16.5,16.5C495.6,139.6,488.2,147,479.1,147z"/><path class="st1" d="M709.7,6.7c-66,0-119.5,53.5-119.5,119.5c0,60,44.1,109.6,101.7,118.2l-11.1,24.9c-6.1,21.2,6.8,29.1,24.1,14.7l83.7-68l0.2-0.2c24.8-21.9,40.5-53.9,40.5-89.6C829.2,60.2,775.7,6.7,709.7,6.7z M652.7,149c-9.1,0-16.5-7.4-16.5-16.5c0-9.1,7.4-16.5,16.5-16.5c9.1,0,16.5,7.4,16.5,16.5C669.2,141.6,661.8,149,652.7,149z M710.1,149c-9.1,0-16.5-7.4-16.5-16.5c0-9.1,7.4-16.5,16.5-16.5c9.1,0,16.5,7.4,16.5,16.5C726.6,141.6,719.2,149,710.1,149z M767.5,149c-9.1,0-16.5-7.4-16.5-16.5c0-9.1,7.4-16.5,16.5-16.5c9.1,0,16.5,7.4,16.5,16.5C784,141.6,776.6,149,767.5,149z"/><path class="st1" d="M150.5,147.6c24.9,24.8,60.8,32,92.2,21.8c5.3-13.6,8.3-28.4,8.3-43.8c0-9.8-1.2-19.2-3.4-28.3c-3.4,5.6-9.6,9.3-16.7,9.3c-10.8,0-19.6-8.7-19.6-19.5s8.8-19.5,19.6-19.5c2,0,3.9,0.3,5.7,0.8c-20.5-38.1-61-64-107.5-64C61.9,4.5,7.3,58.7,7.3,125.6c0,60.7,45,111,103.6,119.7l-11.3,25.2c-6.3,21.5,6.9,29.4,24.6,14.9l86.1-69l-0.6-0.1c8.6-7.5,16.1-16.3,22.3-25.9c-33.3,5.4-68.7-4.7-94.3-30.1c-3.5-3.5-3.5-9.2,0-12.6C141.3,144.1,147,144.1,150.5,147.6z M164.2,67.7c10.8,0,19.6,8.7,19.6,19.5s-8.8,19.5-19.6,19.5c-10.8,0-19.6-8.7-19.6-19.5S153.4,67.7,164.2,67.7z"/><path class="st1" d="M539.5,126.2C539.5,60.2,486,6.7,420,6.7S300.5,60.2,300.5,126.2c0,60,44.1,109.6,101.7,118.2l-11.1,24.9c-6.1,21.2,6.8,29.1,24.1,14.7l83.7-68l0.2-0.2C523.9,193.9,539.5,161.9,539.5,126.2z"/><path class="st1" d="M1000,6.7c-66,0-119.5,53.5-119.5,119.5c0,60,44.1,109.6,101.7,118.2l-11.1,24.9c-6.1,21.2,6.8,29.1,24.1,14.7l83.7-68l0.2-0.2c24.8-21.9,40.5-53.9,40.5-89.6C1119.5,60.2,1066,6.7,1000,6.7z M1045.1,77.2c10.7,0,19.4,8.7,19.4,19.4s-8.7,19.4-19.4,19.4c-10.7,0-19.4-8.7-19.4-19.4S1034.4,77.2,1045.1,77.2z M961.9,77.2c10.7,0,19.4,8.7,19.4,19.4s-8.7,19.4-19.4,19.4s-19.4-8.7-19.4-19.4S951.2,77.2,961.9,77.2z M1067.3,171.3c-34.1,34.1-89.5,34.1-123.5,0c-3.3-3.3-3.3-8.7,0-12c3.3-3.3,8.7-3.3,12,0c27.5,27.5,72.1,27.5,99.6,0c3.3-3.3,8.7-3.3,12,0C1070.6,162.6,1070.6,168,1067.3,171.3z"/><path class="st0" d="M1288.5,9.7c-66,0-119.5,53.5-119.5,119.5c0,60,44.1,109.6,101.7,118.2l-11.1,24.9c-6.1,21.2,6.8,29.1,24.1,14.7l83.7-68l0.2-0.2c24.8-21.9,40.5-53.9,40.5-89.6C1408.1,63.2,1354.6,9.7,1288.5,9.7z M1297.7,87.7c2.9-2.7,6.4-4.7,10.2-6.2c3.2-2.8,7.5-4.1,12.1-4.4c1-0.1,2.2,0.2,3.2,0.6c0.3,0,0.7-0.1,1-0.1c3-2.9,6.7-4.9,11.1-5.2c6-0.4,11.5,3,14.7,7.9c1.7,2.6,2.8,5.3,3.3,8c0.3,0.6,0.5,1.2,0.7,1.8c0.8,0.4,1.6,0.9,2.4,1.5c5,2.3,8.7,6.7,9,12.7c0.2,5.1-2,9.8-5.5,13.5c3.5,3,5.8,7.5,5.8,12.5c0,9.1-7.4,16.5-16.5,16.5s-16.5-7.4-16.5-16.5c0-1.8,0.3-3.4,0.8-5c0,0-0.1,0-0.1,0c-3.7,0.8-6.5-0.4-8.7-3c-0.2-0.1-0.4-0.2-0.7-0.3c-2.5-1.2-3.8-3.1-4.2-5.1c-4.7-2.2-8.8-5.8-11.9-10.2c-3.7-0.1-7.4-1.3-10.3-3.7C1292.7,99.2,1293.5,91.7,1297.7,87.7z M1291.6,114c9.1,0,16.5,7.4,16.5,16.5c0,9.1-7.4,16.5-16.5,16.5c-9.1,0-16.5-7.4-16.5-16.5C1275.1,121.4,1282.5,114,1291.6,114z M1217.7,130.5c0-6.7,4-12.4,9.7-15c0-0.4,0-0.8,0.1-1.2c-0.8-2.3-1.3-4.7-1.2-6.9c0-1.2,0.1-2.5,0.3-3.7c-0.4-2.5-0.2-4.9,0.6-7.1c-0.3-0.6-0.5-1.1-0.8-1.8c-5.2-14.2,16.5-24,26.9-26.8c3.4-0.9,7.8,0.5,9.4,3.8c0.3,0.7,0.7,1.5,1,2.3c3,1.2,5.7,3,7.8,5.4c3.5,4,5.2,9.3,4.3,14.5c3.7,3.8,5.2,9.7,1.8,14.7c-3.1,4.6-8.7,7.6-14.7,8.9c0.5,6.1-7,11.8-13,7.8c0.5,1.6,0.8,3.3,0.8,5.1c0,9.1-7.4,16.5-16.5,16.5S1217.7,139.6,1217.7,130.5z M1363.1,185.3c-1.7-0.2-3.3-0.6-4.8-1.3c-0.8,2.3-2.6,4.2-5.2,5c-0.2,0.1-0.3,0.1-0.5,0.2c1.7,0.6,3.3,1.2,5,1.8c5,2,9.1,9.6,3.7,13.9c-9.1,7.2-22.3,5.4-33.2,5c-0.9,0-1.8-0.1-2.7-0.1c-17.2,2-34.9,2.6-51.7-1.3c-6.1-1.4-7.2-7.3-4.8-11.6c-2.5-0.3-4.9-0.8-7.2-1.6c-3.3-1.2-6.2-2.9-8.9-4.8c-2.6,1.6-6.1,1.9-8.6,0.2c-4.7-3.1-9.7-6.2-13.8-10.2c-2.5-2.5-3.9-5.2-4.3-8.7c-0.2-1.9,0.1-3.9,0.5-5.8c0.1-0.3,0.1-0.5,0.1-0.7c0-0.1-0.1-0.1-0.1-0.2c-4-6.6,2-12.5,7.9-12.1c2.6-2.8,7.2-3.9,10.5-1.7c6.2,4.2,12.4,8.5,19.1,11.9c0.9-0.4,2-0.6,3.2-0.6c5.1,0,10.2,0,15.3,0.1c5.3-0.1,10.6-0.2,15.8,0.1c2.4,0,4.9,0,7.3,0.1c-1-4,1.5-9.2,5.8-10c8.4-1.5,17.1-3.5,25.7-3c4.3,0.2,8.6,0.8,12.8,2c1,0.3,2,0.8,2.8,1.4c2.9-0.1,5.5,1.5,7.1,3.7c0.1,0,0.1,0,0.2-0.1c3.8-1.1,6.9,0.4,8.6,2.9c1.5,0.7,2.9,1.4,4.2,2.4c3.4,2.5,7.5,6.2,7,11C1379.2,181.7,1371.1,186.1,1363.1,185.3z"/><circle class="st1" cx="1001.9" cy="-155.4" r="19.4"/><circle class="st1" cx="1085.1" cy="-155.4" r="19.4"/><g><path class="st1" d="M1107.3-80.7c-34.1,34.1-89.5,34.1-123.5,0c-3.3-3.3-3.3-8.7,0-12c3.3-3.3,8.7-3.3,12,0c27.5,27.5,72.1,27.5,99.6,0c3.3-3.3,8.7-3.3,12,0C1110.6-89.4,1110.6-84,1107.3-80.7z"/></g><path class="st1" d="M1290,6.7c-66,0-119.5,53.5-119.5,119.5c0,60,44.1,109.6,101.7,118.2l-11.1,24.9c-6.1,21.2,6.8,29.1,24.1,14.7l83.7-68l0.2-0.2c24.8-21.9,40.5-53.9,40.5-89.6C1409.5,60.2,1356,6.7,1290,6.7z M1357.3,171.3c-34.1,34.1-89.5,34.1-123.5,0c-3.3-3.3-3.3-8.7,0-12c3.3-3.3,8.7-3.3,12,0c27.5,27.5,72.1,27.5,99.6,0c3.3-3.3,8.7-3.3,12,0C1360.6,162.6,1360.6,168,1357.3,171.3z"/><path class="st0" d="M1578.5,9.7c-66,0-119.5,53.5-119.5,119.5c0,60,44.1,109.6,101.7,118.2l-11.1,24.9c-6.1,21.2,6.8,29.1,24.1,14.7l83.7-68l0.2-0.2c24.8-21.9,40.5-53.9,40.5-89.6C1698.1,63.2,1644.6,9.7,1578.5,9.7z M1524.2,147c-9.1,0-16.5-7.4-16.5-16.5c0-4.3,1.7-8.2,4.4-11.1c0.6,7.3,8.8,13.1,18.8,13.1c3.6,0,7-0.8,9.9-2.1c0,0,0,0.1,0,0.1C1540.7,139.6,1533.3,147,1524.2,147z M1581.6,147c-9.1,0-16.5-7.4-16.5-16.5c0-9.1,7.4-16.5,16.5-16.5c9.1,0,16.5,7.4,16.5,16.5C1598.1,139.6,1590.8,147,1581.6,147z M1639.1,147c-9.1,0-16.5-7.4-16.5-16.5c0-9.1,7.4-16.5,16.5-16.5s16.5,7.4,16.5,16.5C1655.6,139.6,1648.2,147,1639.1,147z"/><path class="st1" d="M1580,6.7c-66,0-119.5,53.5-119.5,119.5c0,60,44.1,109.6,101.7,118.2l-11.1,24.9c-6.1,21.2,6.8,29.1,24.1,14.7l83.7-68l0.2-0.2c24.8-21.9,40.5-53.9,40.5-89.6C1699.5,60.2,1646,6.7,1580,6.7z M1519.6,98.9c0-1,0.1-2,0.3-3c1.4,8.8,9,15.5,18.2,15.5c9.2,0,16.8-6.7,18.2-15.5c0.2,1,0.3,2,0.3,3c0,10.2-8.3,18.5-18.5,18.5C1527.9,117.4,1519.6,109.1,1519.6,98.9z M1602.7,192.6H1555c-3.2,0-5.7-4-5.7-8.8c0-4.9,2.6-8.8,5.7-8.8h47.7c3.2,0,5.7,4,5.7,8.8C1608.4,188.7,1605.9,192.6,1602.7,192.6z M1621.9,117.4c-10.2,0-18.5-8.3-18.5-18.5c0-1,0.1-2,0.3-3c1.4,8.8,9,15.5,18.2,15.5c9.2,0,16.8-6.7,18.2-15.5c0.2,1,0.3,2,0.3,3C1640.4,109.1,1632.1,117.4,1621.9,117.4z"/></svg>