<svg id="Layer_1" data-name="Layer 1" xmlns="http://www.w3.org/2000/svg" xmlns:xlink="http://www.w3.org/1999/xlink" viewBox="0 0 16 16"><defs><style>.cls-1{fill:url(#linear-gradient);}.cls-2{fill:#fff;}</style><linearGradient id="linear-gradient" x1="10.25" y1="88.38" x2="5.75" y2="103.08" gradientTransform="translate(0 -87.73)" gradientUnits="userSpaceOnUse"><stop offset="0" stop-color="#d1258e"/><stop offset="0.27" stop-color="#b91c88"/><stop offset="0.83" stop-color="#732369"/><stop offset="1" stop-color="#601f5f"/></linearGradient></defs><title>raychat-icon</title><circle class="cls-1" cx="8" cy="8" r="7.68"/><path class="cls-2" d="M7.79,8.37a.34.34,0,0,1,0-.47.33.33,0,0,1,.47,0,2.76,2.76,0,0,0,3.59.27,3.91,3.91,0,0,0,0-1.8A.64.64,0,0,1,11,6.7a.63.63,0,0,1-.33-.84.64.64,0,0,1,.84-.33h0a3.93,3.93,0,1,0-4.06,5.73l-.37.82c-.2.69.22.95.79.48l2.76-2.23a4,4,0,0,0,.92-1.2A3.44,3.44,0,0,1,7.79,8.37Zm1-2.89a.64.64,0,1,1-.64.64h0A.63.63,0,0,1,8.77,5.48Z"/></svg>