<svg xmlns:xlink="http://www.w3.org/1999/xlink" xmlns="http://www.w3.org/2000/svg" class="_navbar_logo__14JAU" alt="تحلیل سهام در شبکه اجتماعی" version="1.1" id="Layer_1" x="0px" y="0px" viewBox="0 0 643.2 189.33" style="enable-background:new 0 0 643.2 189.33" xml:space="preserve" width="643.2"  height="189.33" ><g><g><rect x="324.03" y="45.09" fill="#10EDC5" width="73.95" height="18"></rect></g><rect x="473.73" y="155.38" fill="#10EDC5" width="86.4" height="10.74"></rect><path fill="#10EDC5" d="M0,0.05v189h189v-189H0z M107.73,132.17H28.89v-31.53h65.78l42.92-42.92l22.29,22.29L107.73,132.17z"></path><g><rect x="306.7" y="10.82" fill="#FFFFFF" width="46.89" height="18"></rect><path fill="#FFFFFF" d="M258,45.09h-0.9c-7.47,0-13.54-6.08-13.54-13.54c0-7.47,6.08-13.54,13.54-13.54h13.54v16.25h18V0H257.1
			c-17.39,0-31.54,14.15-31.54,31.54s14.15,31.54,31.54,31.54h0.9h12.64v35.09h18V63.08h43.31v-18h-52.3L258,45.09L258,45.09z"></path><path fill="#FFFFFF" d="M630.48,20.48l-24.5,24.5h-81.66c-12.29,0-23.85,4.78-32.55,13.45l-14.16,14.11l-27.58-27.45h-13.49V26.14
			c0-10.71-6.15-19.92-16.05-24.02c-9.9-4.1-20.75-1.94-28.33,5.63l-25.93,25.93v64.49h18V41.13l20.65-20.65
			c3.51-3.51,7.56-2.21,8.71-1.73c1.16,0.48,4.94,2.43,4.94,7.39v18.95h-22.76v18h46.82l22.26,22.16l-12.87,12.83l12.71,12.75
			l39.78-39.64c5.31-5.29,12.35-8.2,19.84-8.2h89.11l29.78-29.78L630.48,20.48z"></path></g><g><path fill="#FFFFFF" d="M251.91,155.54c-9.49-2.43-11.84-3.61-11.84-7.21v-0.16c0-2.67,2.43-4.78,7.06-4.78s9.41,2.04,14.27,5.41
			l6.27-9.09c-5.57-4.47-12.39-6.98-20.38-6.98c-11.21,0-19.21,6.59-19.21,16.54v0.16c0,10.9,7.13,13.95,18.19,16.78
			c9.17,2.35,11.05,3.92,11.05,6.98v0.16c0,3.21-2.98,5.17-7.92,5.17c-6.27,0-11.45-2.59-16.38-6.66l-7.13,8.55
			c6.59,5.88,14.97,8.78,23.28,8.78c11.84,0,20.15-6.11,20.15-17.01v-0.16C269.31,162.44,263.04,158.44,251.91,155.54z"></path><polygon fill="#FFFFFF" points="297.46,133.12 273.94,188.39 286.25,188.39 302.87,147.62 310.16,165.42 302.14,165.42
			297.83,176.08 314.47,176.08 319.49,188.39 332.11,188.39 308.59,133.12 		"></polygon><polygon fill="#FFFFFF" points="427.59,156.71 413.17,133.51 400.16,133.51 400.16,188.39 411.99,188.39 411.99,152.8 427.28,176
			427.59,176 443.04,152.56 443.04,188.39 455.03,188.39 455.03,133.51 442.02,133.51 		"></polygon><polygon fill="#FFFFFF" points="534.94,144.64 551.64,144.64 551.64,188.39 563.71,188.39 563.71,144.64 580.41,144.64
			580.41,133.51 534.94,133.51 		"></polygon><path fill="#FFFFFF" d="M614.12,132.57c-16.93,0-29.24,12.78-29.24,28.38v0.16c0,15.6,12.15,28.22,29.08,28.22
			c16.93,0,29.24-12.78,29.24-28.38v-0.16C643.21,145.19,631.06,132.57,614.12,132.57z M630.58,161.11
			c0,9.41-6.74,17.09-16.46,17.09c-9.72,0-16.62-7.84-16.62-17.25v-0.16c0-9.41,6.74-17.09,16.46-17.09s16.62,7.84,16.62,17.25
			V161.11z"></path><polygon fill="#FFFFFF" points="480.2,144.25 509.6,144.25 509.6,133.51 468.2,133.51 468.2,188.39 509.99,188.39 509.99,177.65
			480.2,177.65 		"></polygon><rect x="488.25" y="155.38" fill="#FFFFFF" width="17.81" height="10.74"></rect><polygon fill="#FFFFFF" points="374.91,155.23 352.65,155.23 352.65,133.51 340.58,133.51 340.58,188.39 352.65,188.39
			352.65,166.36 374.91,166.36 374.91,188.39 386.99,188.39 386.99,133.51 374.91,133.51 		"></polygon></g></g></svg>