<?xml version="1.0" encoding="UTF-8"?>
<svg enable-background="new 0 0 38 38" version="1.1" viewBox="0 0 38 38" xml:space="preserve" xmlns="http://www.w3.org/2000/svg">
<style type="text/css">
	.st0{fill:#E0E0E0;}
</style>
<path class="st0" d="m32.4 5.6c-7.4-7.5-19.4-7.5-26.8 0-7.5 7.4-7.5 19.4 0 26.8 7.4 7.4 19.5 7.4 26.9 0s7.4-19.4-0.1-26.8zm-2 24.8c-6.3 6.3-16.5 6.3-22.7 0-6.3-6.3-6.3-16.5 0-22.7 6.3-6.3 16.5-6.3 22.7 0 6.2 6.2 6.2 16.4 0 22.7zm-18.5-16.5c0-1.2 1-2.2 2.2-2.2s2.2 1 2.2 2.2-1 2.2-2.2 2.2-2.2-1-2.2-2.2zm10.1 0c0-1.2 1-2.2 2.2-2.2s2.2 1 2.2 2.2-1 2.2-2.2 2.2-2.2-1-2.2-2.2zm5.2 9.1c-1.4 3.2-4.6 5.2-8.2 5.2-3.7 0-6.9-2.1-8.3-5.3-0.2-0.5 0-1.2 0.6-1.4 0.1-0.1 0.3-0.1 0.4-0.1 0.4 0 0.8 0.2 1 0.7 1 2.4 3.5 3.9 6.3 3.9s5.2-1.5 6.2-3.9c0.2-0.5 0.9-0.8 1.4-0.6 0.6 0.3 0.9 0.9 0.6 1.5z"/>
</svg>
