<?xml version="1.0" encoding="UTF-8"?>
<svg enable-background="new 0 0 106.1 106.1" version="1.1" viewBox="0 0 106.1 106.1" xml:space="preserve" xmlns="http://www.w3.org/2000/svg">
<style type="text/css">
	.st0{display:none;opacity:0.15;}
	.st1{display:inline;}
	.st2{fill:#FFFFFF;}
</style>
<g class="st0">
	<g class="st1">
		<path d="m82.1 25.9c-2.2-2.2-5.7-2.2-7.9 0l-20 20-20-20c-2.2-2.2-5.7-2.2-7.9 0s-2.2 5.7 0 7.9l20 20-20 20c-2.2 2.2-2.2 5.7 0 7.9 1.1 1.1 2.5 1.6 4 1.6s2.9-0.5 3.9-1.6l20-20 20 20c1.1 1.1 2.5 1.6 3.9 1.6s2.9-0.5 3.9-1.6c2.2-2.2 2.2-5.7 0-7.9l-20-20 20-20c2.3-2.1 2.3-5.7 0.1-7.9z"/>
	</g>
</g>
<title>9C228C72-46EE-452A-8BA7-8AF0D77167B7</title>
		<path class="st2" d="m82.1 25.1c-2.2-2.2-5.7-2.2-7.9 0l-20 20-20-20c-2.2-2.2-5.7-2.2-7.9 0s-2.2 5.7 0 7.9l20 20-20 20c-2.2 2.2-2.2 5.7 0 7.9 1.1 1.1 2.5 1.6 4 1.6s2.9-0.5 3.9-1.6l20-20 20 20c1.1 1.1 2.5 1.6 3.9 1.6s2.9-0.5 3.9-1.6c2.2-2.2 2.2-5.7 0-7.9l-20-20 20-20c2.3-2.1 2.3-5.7 0.1-7.9z"/>
</svg>
